<?xml version="1.0" encoding="UTF-8" standalone="no"?>
<svg
   xmlns:dc="http://purl.org/dc/elements/1.1/"
   xmlns:cc="http://creativecommons.org/ns#"
   xmlns:rdf="http://www.w3.org/1999/02/22-rdf-syntax-ns#"
   xmlns:svg="http://www.w3.org/2000/svg"
   xmlns="http://www.w3.org/2000/svg"
   xmlns:sodipodi="http://sodipodi.sourceforge.net/DTD/sodipodi-0.dtd"
   xmlns:inkscape="http://www.inkscape.org/namespaces/inkscape"
   width="320"
   height="134"
   viewBox="0 0 84.666662 35.454168"
   version="1.1"
   id="svg8"
   inkscape:version="1.0.2 (e86c870879, 2021-01-15, custom)"
   sodipodi:docname="AwesomeCars.svg">
  <defs
     id="defs2">
    <inkscape:path-effect
       effect="spiro"
       id="path-effect4248"
       is_visible="true"
       lpeversion="0" />
    <inkscape:path-effect
       effect="skeletal"
       id="path-effect4250"
       is_visible="true"
       pattern="M 0,5 C 0,2.24 2.24,0 5,0 7.76,0 10,2.24 10,5 10,7.76 7.76,10 5,10 2.24,10 0,7.76 0,5 Z"
       copytype="single_stretched"
       prop_scale="1"
       scale_y_rel="false"
       spacing="0"
       normal_offset="0"
       tang_offset="0"
       prop_units="false"
       vertical_pattern="false"
       fuse_tolerance="0"
       lpeversion="0"
       hide_knot="false" />
    <inkscape:path-effect
       effect="spiro"
       id="path-effect4254"
       is_visible="true"
       lpeversion="0" />
    <inkscape:path-effect
       effect="skeletal"
       id="path-effect4256"
       is_visible="true"
       pattern="M 0,5 C 0,2.24 2.24,0 5,0 7.76,0 10,2.24 10,5 10,7.76 7.76,10 5,10 2.24,10 0,7.76 0,5 Z"
       copytype="single_stretched"
       prop_scale="1"
       scale_y_rel="false"
       spacing="0"
       normal_offset="0"
       tang_offset="0"
       prop_units="false"
       vertical_pattern="false"
       fuse_tolerance="0"
       lpeversion="0"
       hide_knot="false" />
    <inkscape:path-effect
       effect="spiro"
       id="path-effect4300"
       is_visible="true"
       lpeversion="0" />
    <inkscape:path-effect
       effect="skeletal"
       id="path-effect4302"
       is_visible="true"
       pattern="M 0,5 C 0,2.24 2.24,0 5,0 7.76,0 10,2.24 10,5 10,7.76 7.76,10 5,10 2.24,10 0,7.76 0,5 Z"
       copytype="single_stretched"
       prop_scale="1"
       scale_y_rel="false"
       spacing="0"
       normal_offset="0"
       tang_offset="0"
       prop_units="false"
       vertical_pattern="false"
       fuse_tolerance="0"
       lpeversion="0"
       hide_knot="false" />
    <inkscape:path-effect
       effect="spiro"
       id="path-effect4224"
       is_visible="true"
       lpeversion="0" />
    <inkscape:path-effect
       effect="skeletal"
       id="path-effect4226"
       is_visible="true"
       pattern="M 0,5 C 0,2.24 2.24,0 5,0 7.76,0 10,2.24 10,5 10,7.76 7.76,10 5,10 2.24,10 0,7.76 0,5 Z"
       copytype="single_stretched"
       prop_scale="1"
       scale_y_rel="false"
       spacing="0"
       normal_offset="0"
       tang_offset="0"
       prop_units="false"
       vertical_pattern="false"
       fuse_tolerance="0"
       lpeversion="0"
       hide_knot="false" />
    <inkscape:path-effect
       effect="spiro"
       id="path-effect5035"
       is_visible="true"
       lpeversion="0" />
    <inkscape:path-effect
       effect="skeletal"
       id="path-effect5037"
       is_visible="true"
       pattern="m 1.4613957,16.457685 c 0,-2.76 2.24,-5 5,-5 2.76,0 5.0000003,2.24 5.0000003,5 0,2.76 -2.2400003,5.000001 -5.0000003,5.000001 -2.76,0 -5,-2.240001 -5,-5.000001 z"
       copytype="single_stretched"
       prop_scale="1"
       scale_y_rel="false"
       spacing="0"
       normal_offset="0"
       tang_offset="0"
       prop_units="false"
       vertical_pattern="false"
       fuse_tolerance="0"
       lpeversion="0"
       hide_knot="false" />
    <inkscape:path-effect
       effect="spiro"
       id="path-effect5041"
       is_visible="true"
       lpeversion="0" />
    <inkscape:path-effect
       effect="skeletal"
       id="path-effect5043"
       is_visible="true"
       pattern="m 0,15 c 0,-2.76 2.24,-5 5,-5 2.76,0 5,2.24 5,5 0,2.76 -2.24,5 -5,5 -2.76,0 -5,-2.24 -5,-5 z"
       copytype="single_stretched"
       prop_scale="1"
       scale_y_rel="false"
       spacing="0"
       normal_offset="0"
       tang_offset="0"
       prop_units="false"
       vertical_pattern="false"
       fuse_tolerance="0"
       lpeversion="0"
       hide_knot="false" />
  </defs>
  <sodipodi:namedview
     id="base"
     pagecolor="#ffffff"
     bordercolor="#666666"
     borderopacity="1.0"
     inkscape:pageopacity="0.0"
     inkscape:pageshadow="2"
     inkscape:zoom="3.0925926"
     inkscape:cx="188"
     inkscape:cy="83"
     inkscape:document-units="mm"
     inkscape:current-layer="layer1"
     inkscape:document-rotation="0"
     showgrid="false"
     inkscape:window-width="1920"
     inkscape:window-height="1017"
     inkscape:window-x="-8"
     inkscape:window-y="-8"
     inkscape:window-maximized="1"
     units="px" />
  <metadata
     id="metadata5">
    <rdf:RDF>
      <cc:Work
         rdf:about="">
        <dc:format>image/svg+xml</dc:format>
        <dc:type
           rdf:resource="http://purl.org/dc/dcmitype/StillImage" />
        <dc:title></dc:title>
      </cc:Work>
    </rdf:RDF>
  </metadata>
  <g
     inkscape:label="Layer 1"
     inkscape:groupmode="layer"
     id="layer1">
    <text
       xml:space="preserve"
       style="font-style:normal;font-weight:normal;font-size:10.5833px;line-height:1.25;font-family:sans-serif;fill:#000000;fill-opacity:1;stroke:none;stroke-width:0.264583"
       x="58.168114"
       y="104.51247"
       id="text867"><tspan
         sodipodi:role="line"
         id="tspan865"
         x="58.168114"
         y="104.51247"
         style="stroke-width:0.264583" /></text>
    <path
       sodipodi:nodetypes="cssssc"
       inkscape:connector-curvature="0"
       id="path5033"
       d="m 14.923477,3.74616 c 0.04238,-0.0556 0.562161,0.32511 1.576206,0.85092 0.99107,0.5139 2.566445,1.1918 4.562447,1.40183 0,0 2e-6,0 2e-6,0 1.912869,0.205 4.013133,-0.0375 6.464513,-0.74844 2.102585,-0.61253 3.904147,-1.3899 6.271392,-2.30179 1.632777,-0.63125 3.384798,-1.25531 5.194729,-1.75191 1.66374,-0.45647997 3.30015,-0.78459 4.93289,-0.95002 3.98993,-0.40768 7.53583,0.27969003 10.33877,1.78135 2.01671,1.08971 3.50575,2.37031 4.82007,3.2134 2.36364,1.5165 3.97158,2.02153 3.93798,2.13011 -0.0336,0.10882 -1.7178,-0.19092 -4.2389,-1.5995 -1.40156,-0.78324 -2.96536,-2.00996 -4.89962,-2.96944 -2.67887,-1.3414 -6.03138,-1.90441997 -9.85366,-1.49698 -1.56648,0.16825 -3.14448,0.49262 -4.76469,0.93898 -1.760073,0.48491 -3.487793,1.09171 -5.109356,1.69838 -2.334927,0.87683 -4.22229,1.64888 -6.385828,2.22862 -2.544908,0.6853 -4.788171,0.85655 -6.797424,0.55337 0,0 0,0 0,0 -4.228089,-0.64572 -6.134278,-2.868 -6.049521,-2.97888 z"
       style="fill:#000000;fill-rule:evenodd;stroke:none;stroke-width:0.107016px;stroke-linecap:butt;stroke-linejoin:miter;stroke-opacity:1"
       inkscape:export-filename="C:\wamp64\www\arya\project\images\ac_logo.png"
       inkscape:export-xdpi="96"
       inkscape:export-ydpi="96" />
    <path
       inkscape:connector-curvature="0"
       id="path5039"
       d="m 15.772021,17.78521 c -0.03417,0.0167 -0.223421,-0.25031 -0.450324,-0.82922 -0.218886,-0.55839 -0.490158,-1.49789 -0.46979,-2.68403 0.01814,-1.03678 0.266256,-2.31741 0.976518,-3.56963 0,0 0,0 0,0 0.880264,-1.54192 2.416752,-2.93862 4.514157,-3.77637 1.852513,-0.74059 3.882576,-1.00019 6.146976,-1.04019 0,0 3e-6,0 3e-6,0 2.642385,-0.052 5.285818,0.15345 8.238773,0.46558 2.513019,0.26485 5.442542,0.63072 8.153062,0.80195 1.91724,0.12218 3.85982,0.15989 5.86277,0.14915 4.3503,-0.0239 8.56701,-0.25614 12.53454,-0.28869 0,0 1e-5,0 1e-5,0 4.60166,-0.0394 8.57787,0.17588 12.33277,0.7813 0,0 0,0 0,0 2.06951,0.33253 3.87283,0.76441 5.54049,1.4342 1.43231,0.5728903 2.61217,1.28592 3.54026,2.18338 0,0 0,0 0,0 1.05062,1.01193 1.60836,2.15803 1.77455,3.19874 0.16875,1.08482 -0.10061,1.97122 -0.32098,2.46119 -0.23229,0.51652 -0.43963,0.73262 -0.47,0.7126 -0.0304,-0.0215 0.11464,-0.27504 0.27358,-0.79116 0.15092,-0.49014 0.32876,-1.33631 0.11722,-2.30435 -0.20048,-0.938 -0.76217,-1.93414 -1.76199,-2.83923 0,0 0,0 0,0 -0.89047,-0.80271 -2.01423,-1.42195 -3.40237,-1.9384997 C 77.281366,9.31154 75.533006,8.94112 73.488806,8.65104 c 0,0 0,0 0,0 -3.71465,-0.5249 -7.62101,-0.67935 -12.19785,-0.60382 0,0 0,0 0,0 -3.93948,0.0663 -8.15376,0.31656 -12.54131,0.33938 -2.01971,0.0119 -3.98742,-0.0317 -5.93446,-0.16157 C 40.048066,8.03889 37.133311,7.65433 34.622487,7.36498 31.681631,7.02703 29.090903,6.78919 26.499512,6.7975 c 0,0 -2e-6,0 -2e-6,0 -2.216323,0.0119 -4.141212,0.20476 -5.886912,0.86223 -1.966457,0.74145 -3.426169,1.9673803 -4.279844,3.35766 0,0 0,0 0,0 -0.694671,1.12359 -0.982376,2.3026 -1.053908,3.27483 -0.08188,1.10999 0.105529,2.0289 0.253054,2.59141 0.153139,0.58392 0.274307,0.88459 0.240147,0.90175 z"
       style="fill:#ff0000;fill-rule:evenodd;stroke:none;stroke-width:0.107016px;stroke-linecap:butt;stroke-linejoin:miter;stroke-opacity:1"
       sodipodi:nodetypes="csssssssssc"
       inkscape:export-filename="C:\wamp64\www\arya\project\images\ac_logo.png"
       inkscape:export-xdpi="96"
       inkscape:export-ydpi="96" />
    <g
       aria-label="awesome"
       id="text934"
       style="font-style:normal;font-weight:normal;font-size:16.9663px;line-height:1.25;font-family:sans-serif;fill:#000000;fill-opacity:1;stroke:none;stroke-width:0.424158"
       transform="translate(-60.854167,-111.125)">
      <path
         d="m 69.080515,133.8562 h -1.549168 v -0.98583 q -0.207109,0.14083 -0.563335,0.39764 -0.347941,0.24853 -0.679314,0.39765 -0.389364,0.19054 -0.894707,0.31481 -0.505344,0.13255 -1.184659,0.13255 -1.250933,0 -2.120787,-0.82844 -0.869855,-0.82843 -0.869855,-2.1125 0,-1.05211 0.447354,-1.69829 0.455638,-0.65446 1.292355,-1.02725 0.845001,-0.3728 2.02966,-0.50535 1.184658,-0.13255 2.543288,-0.19882 v -0.24025 q 0,-0.53019 -0.19054,-0.87814 -0.182255,-0.34794 -0.530197,-0.54676 -0.331373,-0.19054 -0.795295,-0.25681 -0.463922,-0.0663 -0.969266,-0.0663 -0.61304,0 -1.366914,0.16569 -0.753874,0.1574 -1.557453,0.46392 h -0.08284 v -1.58231 q 0.455638,-0.12426 1.317207,-0.27338 0.86157,-0.14912 1.698287,-0.14912 0.977551,0 1.698287,0.16569 0.729021,0.1574 1.259217,0.54676 0.521913,0.38108 0.795296,0.98584 0.273382,0.60476 0.273382,1.49946 z m -1.549168,-2.27819 v -2.57642 q -0.712452,0.0414 -1.681719,0.12426 -0.960981,0.0828 -1.524315,0.24025 -0.671031,0.19054 -1.085247,0.59647 -0.414216,0.39765 -0.414216,1.10181 0,0.7953 0.48049,1.20123 0.480491,0.39765 1.466326,0.39765 0.820148,0 1.499463,-0.31481 0.679315,-0.32308 1.259218,-0.77044 z"
         style="fill:#808080;stroke-width:0.424158"
         id="path1015"
         inkscape:export-filename="C:\wamp64\www\arya\project\images\ac_logo.png"
         inkscape:export-xdpi="96"
         inkscape:export-ydpi="96" />
      <path
         d="m 83.636076,124.60261 -2.410739,9.25359 h -1.441473 l -2.377601,-7.1328 -2.361033,7.1328 h -1.433188 l -2.435592,-9.25359 h 1.623728 l 1.698286,7.16594 2.311327,-7.16594 h 1.284071 l 2.369317,7.16594 1.607159,-7.16594 z"
         style="fill:#808080;stroke-width:0.424158"
         id="path1017"
         inkscape:export-filename="C:\wamp64\www\arya\project\images\ac_logo.png"
         inkscape:export-xdpi="96"
         inkscape:export-ydpi="96" />
      <path
         d="m 85.226662,129.39095 h 6.818 q 0,0.85329 -0.256814,1.49118 -0.256814,0.62961 -0.704167,1.03554 -0.430785,0.39765 -1.018972,0.59647 -0.596472,0.19882 -1.308924,0.19882 -0.944413,0 -1.897111,-0.37279 -0.960981,-0.38108 -1.366913,-0.74559 h -0.08284 v 1.69829 q 0.787011,0.33137 1.60716,0.55505 0.820148,0.22367 1.723139,0.22367 2.303043,0 3.595398,-1.24265 1.292355,-1.25093 1.292355,-3.54569 0,-2.2699 -1.234365,-3.60368 -1.242649,-1.33377 -3.264024,-1.33377 -1.872258,0 -2.882946,1.09353 -1.018972,1.09353 -1.018972,3.10662 z m 1.516032,-1.19294 q 0.0083,-1.22608 0.621324,-1.89711 0.604756,-0.67103 1.847405,-0.67103 1.250933,0 1.996522,0.7373 0.737305,0.73731 0.836717,1.83084 z"
         style="stroke-width:0.424158"
         id="path1019"
         inkscape:export-filename="C:\wamp64\www\arya\project\images\ac_logo.png"
         inkscape:export-xdpi="96"
         inkscape:export-ydpi="96" />
      <path
         d="m 102.5989,131.18865 q 0,1.2675 -1.05211,2.07936 -1.04383,0.81187 -2.858093,0.81187 -1.027257,0 -1.888827,-0.24025 -0.853285,-0.24853 -1.433188,-0.53848 v -1.74799 h 0.08284 q 0.737305,0.55505 1.640297,0.88642 0.902991,0.32309 1.731424,0.32309 1.027256,0 1.607167,-0.33137 0.5799,-0.33138 0.5799,-1.04383 0,-0.54676 -0.31481,-0.82843 -0.3148,-0.28167 -1.209511,-0.48049 -0.331373,-0.0746 -0.869854,-0.17397 -0.530197,-0.0994 -0.969266,-0.21539 -1.217796,-0.32309 -1.731424,-0.94442 -0.505344,-0.62961 -0.505344,-1.54088 0,-0.57162 0.231961,-1.07696 0.240245,-0.50535 0.720736,-0.903 0.463922,-0.38936 1.176374,-0.61304 0.720737,-0.23196 1.60716,-0.23196 0.828432,0 1.673438,0.20711 0.85328,0.19882 1.41662,0.48878 v 1.66515 h -0.0829 q -0.59647,-0.43907 -1.44975,-0.73731 -0.853291,-0.30652 -1.673439,-0.30652 -0.853286,0 -1.441473,0.33137 -0.588187,0.32309 -0.588187,0.96927 0,0.57162 0.356226,0.86157 0.347942,0.28995 1.126668,0.47221 0.430785,0.0994 0.960982,0.19882 0.538481,0.0994 0.894713,0.18225 1.08524,0.24853 1.67343,0.85329 0.58819,0.61304 0.58819,1.62373 z"
         style="fill:#808080;stroke-width:0.424158"
         id="path1021"
         inkscape:export-filename="C:\wamp64\www\arya\project\images\ac_logo.png"
         inkscape:export-xdpi="96"
         inkscape:export-ydpi="96" />
      <path
         d="m 112.71406,129.23355 q 0,2.26162 -1.15981,3.57054 -1.1598,1.30893 -3.10662,1.30893 -1.96338,0 -3.12319,-1.30893 -1.15152,-1.30892 -1.15152,-3.57054 0,-2.26162 1.15152,-3.57055 1.15981,-1.3172 3.12319,-1.3172 1.94682,0 3.10662,1.3172 1.15981,1.30893 1.15981,3.57055 z m -1.60716,0 q 0,-1.7977 -0.70417,-2.66756 -0.70417,-0.87813 -1.9551,-0.87813 -1.2675,0 -1.97167,0.87813 -0.69588,0.86986 -0.69588,2.66756 0,1.73971 0.70417,2.6427 0.70416,0.8947 1.96338,0.8947 1.24265,0 1.94682,-0.88642 0.71245,-0.89471 0.71245,-2.65098 z"
         style="fill:#808080;stroke-width:0.424158"
         id="path1023"
         inkscape:export-filename="C:\wamp64\www\arya\project\images\ac_logo.png"
         inkscape:export-xdpi="96"
         inkscape:export-ydpi="96" />
      <path
         d="m 128.62825,133.8562 h -1.55745 v -5.26883 q 0,-0.59647 -0.058,-1.15152 -0.0497,-0.55505 -0.22368,-0.88642 -0.19054,-0.35623 -0.54677,-0.53849 -0.35622,-0.18225 -1.02725,-0.18225 -0.65447,0 -1.30893,0.33137 -0.65446,0.32309 -1.30892,0.82844 0.0249,0.19053 0.0414,0.44735 0.0166,0.24853 0.0166,0.49706 v 5.92329 h -1.55745 v -5.26883 q 0,-0.61304 -0.058,-1.15981 -0.0497,-0.55505 -0.22368,-0.88642 -0.19054,-0.35622 -0.54677,-0.5302 -0.35622,-0.18225 -1.02725,-0.18225 -0.6379,0 -1.28407,0.3148 -0.6379,0.31481 -1.27579,0.80358 v 6.90913 h -1.55745 v -9.25359 h 1.55745 v 1.02726 q 0.72902,-0.60476 1.44976,-0.94442 0.72902,-0.33965 1.54917,-0.33965 0.94441,0 1.59887,0.39764 0.66275,0.39765 0.98584,1.10182 0.94441,-0.7953 1.72314,-1.14324 0.77872,-0.35622 1.66515,-0.35622 1.52431,0 2.24505,0.92784 0.72902,0.91956 0.72902,2.57643 z"
         style="fill:#808080;stroke-width:0.424158"
         id="path1025"
         inkscape:export-filename="C:\wamp64\www\arya\project\images\ac_logo.png"
         inkscape:export-xdpi="96"
         inkscape:export-ydpi="96" />
      <path
         d="m 130.97267,129.39095 h 6.818 q 0,0.85329 -0.25682,1.49118 -0.25681,0.62961 -0.70416,1.03554 -0.43079,0.39765 -1.01898,0.59647 -0.59647,0.19882 -1.30892,0.19882 -0.94441,0 -1.89711,-0.37279 -0.96098,-0.38108 -1.36691,-0.74559 h -0.0828 v 1.69829 q 0.78701,0.33137 1.60716,0.55505 0.82015,0.22367 1.72314,0.22367 2.30304,0 3.5954,-1.24265 1.29235,-1.25093 1.29235,-3.54569 0,-2.2699 -1.23436,-3.60368 -1.24265,-1.33377 -3.26403,-1.33377 -1.87225,0 -2.88294,1.09353 -1.01897,1.09353 -1.01897,3.10662 z m 1.51603,-1.19294 q 0.008,-1.22608 0.62132,-1.89711 0.60476,-0.67103 1.84741,-0.67103 1.25093,0 1.99652,0.7373 0.73731,0.73731 0.83672,1.83084 z"
         style="stroke-width:0.424158"
         id="path1027"
         inkscape:export-filename="C:\wamp64\www\arya\project\images\ac_logo.png"
         inkscape:export-xdpi="96"
         inkscape:export-ydpi="96" />
    </g>
    <text
       xml:space="preserve"
       style="font-style:normal;font-weight:normal;font-size:17.5952px;line-height:1.25;font-family:sans-serif;fill:#000000;fill-opacity:1;stroke:none;stroke-width:0.43988"
       x="41.983852"
       y="35.199539"
       id="text961"
       inkscape:export-filename="C:\wamp64\www\arya\project\images\ac_logo.png"
       inkscape:export-xdpi="96"
       inkscape:export-ydpi="96"><tspan
         sodipodi:role="line"
         id="tspan959"
         x="41.983852"
         y="35.199539"
         style="fill:#000000;stroke-width:0.43988">cars</tspan></text>
    <rect
       style="fill:#000000;stroke:none;stroke-width:0.882995"
       id="rect991"
       width="42.821743"
       height="1.5597326"
       x="0.21212944"
       y="29.411789"
       inkscape:export-filename="C:\wamp64\www\arya\project\images\ac_logo.png"
       inkscape:export-xdpi="96"
       inkscape:export-ydpi="96" />
  </g>
</svg>
